<svg width="20" height="20" viewBox="0 0 20 20" fill="none" xmlns="http://www.w3.org/2000/svg">
<path d="M7.593 3.44976L4.65823 6.59992H1.29167C0.854271 6.59992 0.5 6.98028 0.5 7.44988V12.5496C0.5 13.0189 0.854271 13.3996 1.29167 13.3996H4.65823L7.593 16.5498C8.08878 17.0821 8.94444 16.7081 8.94444 15.9488V4.05075C8.94444 3.29075 8.08813 2.91818 7.593 3.44976ZM15.2893 1.64076C14.9209 1.38117 14.4257 1.4906 14.184 1.8869C13.9418 2.28248 14.0448 2.81406 14.4132 3.07365C16.5992 4.61385 17.9038 7.20304 17.9038 10.0001C17.9038 12.7972 16.5992 15.3864 14.4132 16.9266C14.0448 17.1858 13.9418 17.7178 14.184 18.113C14.4162 18.4923 14.9073 18.6286 15.2893 18.3591C17.9256 16.5013 19.5 13.3759 19.5 9.99976C19.5 6.62365 17.9256 3.49863 15.2893 1.64076ZM16.3333 9.99976C16.3333 7.74985 15.2758 5.68126 13.5041 4.46652C13.135 4.21366 12.6455 4.33124 12.4116 4.73072C12.1777 5.1302 12.2869 5.65895 12.656 5.91216C13.9672 6.81135 14.75 8.33916 14.75 9.99976C14.75 11.6604 13.9672 13.1882 12.656 14.0874C12.2869 14.3402 12.1777 14.869 12.4116 15.2688C12.6264 15.6357 13.1083 15.805 13.5041 15.533C15.2758 14.3183 16.3333 12.25 16.3333 9.99976ZM11.6569 7.27741C11.2749 7.05324 10.793 7.20092 10.5812 7.61209C10.3704 8.02325 10.51 8.53996 10.8929 8.76697C11.3188 9.01806 11.5833 9.49085 11.5833 9.99976C11.5833 10.509 11.3188 10.9815 10.8933 11.2326C10.5103 11.4596 10.3708 11.9763 10.5815 12.3874C10.7936 12.8004 11.2759 12.947 11.6572 12.7221C12.5884 12.1714 13.167 11.1284 13.167 9.99941C13.167 8.87038 12.5884 7.82776 11.6569 7.27741Z" fill="black"/>
</svg>
